HIERARCHY
ROOT joint_Root
{
	OFFSET 0.0 0.0 0.0
	CHANNELS 6 Xposition Yposition Zposition Zrotation Xrotation Yrotation 
	JOINT Hips
	{
		OFFSET -0.726466 93.3139 -2.00062
		CHANNELS 6 Xposition Yposition Zposition Zrotation Xrotation Yrotation 
		JOINT Spine
		{
			OFFSET 15.7357 0.0 0.0
			CHANNELS 6 Xposition Yposition Zposition Zrotation Xrotation Yrotation 
			JOINT Chest
			{
				OFFSET 8.98455 -0.406207 0.0
				CHANNELS 6 Xposition Yposition Zposition Zrotation Xrotation Yrotation 
				JOINT Neck
				{
					OFFSET 16.3773 0.0 0.0
					CHANNELS 6 Xposition Yposition Zposition Zrotation Xrotation Yrotation 
					JOINT Head
					{
						OFFSET 6.45672 0.0 0.0
						CHANNELS 6 Xposition Yposition Zposition Zrotation Xrotation Yrotation 
						End Site
						{
							OFFSET 0.0 0.0 0.0
						}
					}
				}
				JOINT Shoulder_L
				{
					OFFSET 12.9942 -0.242716 4.98039
					CHANNELS 6 Xposition Yposition Zposition Zrotation Xrotation Yrotation 
					JOINT UpperArm_L
					{
						OFFSET 5.34809 0.0 0.0
						CHANNELS 6 Xposition Yposition Zposition Zrotation Xrotation Yrotation 
						JOINT LowerArm_L
						{
							OFFSET 24.3286 1.87007e-05 0.0
							CHANNELS 6 Xposition Yposition Zposition Zrotation Xrotation Yrotation 
							JOINT Hand_L
							{
								OFFSET 22.2916 0.0 0.0
								CHANNELS 6 Xposition Yposition Zposition Zrotation Xrotation Yrotation 
								End Site
								{
									OFFSET 0.0 0.0 0.0
								}
							}
						}
					}
				}
				JOINT Shoulder_R
				{
					OFFSET 12.9945 -0.242716 -4.98039
					CHANNELS 6 Xposition Yposition Zposition Zrotation Xrotation Yrotation 
					JOINT UpperArm_R
					{
						OFFSET -5.34813 0.0 0.0
						CHANNELS 6 Xposition Yposition Zposition Zrotation Xrotation Yrotation 
						JOINT LowerArm_R
						{
							OFFSET -24.3289 0.000322201 0.0
							CHANNELS 6 Xposition Yposition Zposition Zrotation Xrotation Yrotation 
							JOINT Hand_R
							{
								OFFSET -22.2915 -0.000108084 0.0
								CHANNELS 6 Xposition Yposition Zposition Zrotation Xrotation Yrotation 
								End Site
								{
									OFFSET 0.0 0.0 0.0
								}
							}
						}
					}
				}
			}
		}
		JOINT UpperLeg_L
		{
			OFFSET -2.19248 -6.46944 0.0
			CHANNELS 6 Xposition Yposition Zposition Zrotation Xrotation Yrotation 
			JOINT LowerLeg_L
			{
				OFFSET 39.0811 0.0 -1.23785e-05
				CHANNELS 6 Xposition Yposition Zposition Zrotation Xrotation Yrotation 
				JOINT Foot_L
				{
					OFFSET 40.9854 0.0 -1.26872e-05
					CHANNELS 6 Xposition Yposition Zposition Zrotation Xrotation Yrotation 
					JOINT Toes_L
					{
						OFFSET 11.7543 0.0 0.0
						CHANNELS 6 Xposition Yposition Zposition Zrotation Xrotation Yrotation 
						End Site
						{
							OFFSET 0.0 0.0 0.0
						}
					}
				}
			}
		}
		JOINT UpperLeg_R
		{
			OFFSET -2.19251 6.46944 0.0
			CHANNELS 6 Xposition Yposition Zposition Zrotation Xrotation Yrotation 
			JOINT LowerLeg_R
			{
				OFFSET -39.0811 -0.00228153 -0.0401928
				CHANNELS 6 Xposition Yposition Zposition Zrotation Xrotation Yrotation 
				JOINT Foot_R
				{
					OFFSET -40.9854 0.0 0.0
					CHANNELS 6 Xposition Yposition Zposition Zrotation Xrotation Yrotation 
					JOINT Toes_R
					{
						OFFSET -11.7543 0.0 0.0
						CHANNELS 6 Xposition Yposition Zposition Zrotation Xrotation Yrotation 
						End Site
						{
							OFFSET 0.0 0.0 0.0
						}
					}
				}
			}
		}
	}
}
MOTION
Frames:	4
Frame Time:	0.0333333
0.000000 0.000000 0.000000 0.000000 0.000000 -0.000000 -0.592496 92.280200 -0.489939 88.079400 -0.847593 4.379880 15.735700 0.000005 -0.000001 88.518400 86.136400 -88.313000 8.984550 -0.406207 -0.000000 -0.041030 -0.213738 0.410476 16.377300 -0.000001 -0.000001 4.030890 -3.044010 0.853658 6.456720 -0.000001 -0.000000 1.209190 -2.989730 1.000270 12.994200 -0.242716 4.980390 -87.465900 -7.234240 -70.635600 5.348090 -0.000007 -0.000001 -92.134400 -40.317500 -79.508700 24.328600 0.000019 0.000005 10.984900 1.299300 -83.335800 22.291600 -0.000001 0.000005 38.819400 5.393070 -2.711010 12.994500 -0.242716 -4.980390 89.844100 0.425634 -69.887000 -5.348130 -0.000001 -0.000004 -77.512000 -36.095900 -81.503400 -24.328900 0.000322 -0.000009 16.952300 3.252060 -79.458300 -22.291500 -0.000108 -0.000004 43.637600 4.867170 10.025400 -2.192480 -6.469440 -0.000000 -175.553000 -6.737750 -2.172680 39.081100 -0.000007 -0.000012 -0.107331 0.253865 22.918000 40.985400 -0.000006 -0.000013 -0.139135 3.367490 -66.557700 11.754300 -0.000000 0.000003 -0.000043 -0.000499 -16.597000 -2.192510 6.469440 -0.000001 179.271000 13.651300 -179.890000 -39.081100 -0.002282 -0.040193 -0.050466 0.150580 19.657100 -40.985400 0.000008 0.000006 2.830380 8.033520 -65.759500 -11.754300 -0.000006 -0.000006 -0.007133 -0.080803 -19.862700
0.000000 0.000000 0.000000 0.000000 0.000000 -0.000000 -0.575770 92.267500 -0.407357 88.084300 -0.781871 4.507960 15.735700 0.000005 -0.000001 88.054300 86.154700 -87.844100 8.984550 -0.406207 -0.000000 -0.079367 -0.275443 0.420112 16.377300 -0.000001 -0.000001 4.249680 -3.097940 0.853148 6.456720 -0.000001 -0.000000 1.614160 -3.009150 1.026440 12.994200 -0.242716 4.980390 -87.442900 -7.298330 -70.630900 5.348090 -0.000007 -0.000001 -87.479500 -38.634100 -78.274800 24.328600 0.000019 0.000005 11.936300 0.831277 -86.071400 22.291600 -0.000001 0.000005 39.003100 5.427130 -3.837830 12.994500 -0.242716 -4.980390 89.841900 0.431669 -69.890900 -5.348130 -0.000001 -0.000004 -72.006800 -34.737300 -80.445700 -24.328900 0.000322 -0.000009 17.897800 2.645320 -81.867300 -22.291500 -0.000108 -0.000004 43.214200 4.903270 9.309330 -2.192480 -6.469440 -0.000000 -175.557000 -6.647480 -2.013400 39.081100 -0.000007 -0.000012 -0.108224 0.255494 22.957100 40.985400 -0.000006 -0.000013 -0.126979 3.365480 -66.634300 11.754300 -0.000000 0.000003 -0.000042 -0.000484 -16.596400 -2.192510 6.469440 -0.000001 179.221000 13.666800 -179.713000 -39.081100 -0.002282 -0.040193 -0.047943 0.143055 19.715500 -40.985400 0.000008 0.000006 2.940640 7.974320 -65.879400 -11.754300 -0.000006 -0.000006 -0.007326 -0.082441 -19.929500
0.000000 0.000000 0.000000 0.000000 0.000000 -0.000000 -0.571268 92.251900 -0.337094 88.087600 -0.686583 4.584080 15.735700 0.000005 -0.000001 87.531300 86.207800 -87.319100 8.984550 -0.406207 -0.000000 -0.188047 -0.341337 0.423637 16.377300 -0.000001 -0.000001 4.589740 -3.097050 0.818186 6.456720 -0.000001 -0.000000 1.975850 -3.001410 1.082010 12.994200 -0.242716 4.980390 -87.440500 -7.324000 -70.676600 5.348090 -0.000007 -0.000001 -81.251600 -36.713300 -76.726600 24.328600 0.000019 0.000005 13.062900 0.260717 -88.874300 22.291600 -0.000001 0.000005 38.742900 5.466030 -5.225570 12.994500 -0.242716 -4.980390 89.829200 0.466042 -69.874800 -5.348130 -0.000001 -0.000004 -65.351800 -33.159900 -79.341100 -24.328900 0.000322 -0.000009 19.444000 2.052580 -84.205500 -22.291500 -0.000108 -0.000004 42.743100 4.969340 7.961850 -2.192480 -6.469440 -0.000000 -175.536000 -6.690530 -1.926480 39.081100 -0.000007 -0.000012 -0.109602 0.257911 23.023600 40.985400 -0.000006 -0.000013 -0.098419 3.484770 -66.715100 11.754300 -0.000000 0.000003 -0.000049 -0.000554 -16.599100 -2.192510 6.469440 -0.000001 179.192000 13.675300 -179.613000 -39.081100 -0.002282 -0.040193 -0.048181 0.143218 19.779200 -40.985400 0.000008 0.000006 2.894010 7.884770 -65.954700 -11.754300 -0.000006 -0.000006 -0.007144 -0.080894 -19.866400
0.000000 0.000000 0.000000 0.000000 0.000000 -0.000000 -0.566823 92.220400 -0.220966 88.101200 -0.690307 4.783070 15.735700 0.000005 -0.000001 87.383600 86.225300 -87.177100 8.984550 -0.406207 -0.000000 -0.223722 -0.358939 0.412134 16.377300 -0.000001 -0.000001 4.741180 -3.104370 0.832221 6.456720 -0.000001 -0.000000 2.505840 -2.982650 1.104500 12.994200 -0.242716 4.980390 -87.434000 -7.325800 -70.635100 5.348090 -0.000007 -0.000001 -73.568700 -34.600900 -74.705400 24.328600 0.000019 0.000005 14.777900 -0.450683 -91.704400 22.291600 -0.000001 0.000005 38.483800 5.499260 -6.504140 12.994500 -0.242716 -4.980390 89.803600 0.535873 -69.872700 -5.348130 -0.000001 -0.000004 -58.036200 -31.452100 -78.222500 -24.328900 0.000322 -0.000009 21.551300 1.348180 -86.590100 -22.291500 -0.000108 -0.000004 42.138400 5.025060 6.776140 -2.192480 -6.469440 -0.000000 -175.508000 -6.717570 -1.706060 39.081100 -0.000007 -0.000012 -0.111247 0.260106 23.156500 40.985400 -0.000006 -0.000013 -0.093106 3.517240 -66.866300 11.754300 -0.000000 0.000003 -0.000042 -0.000490 -16.596600 -2.192510 6.469440 -0.000001 179.093000 13.666600 -179.392000 -39.081100 -0.002282 -0.040193 -0.052314 0.153429 19.931300 -40.985400 0.000008 0.000006 2.834940 7.893720 -66.109400 -11.754300 -0.000006 -0.000006 -0.007095 -0.080479 -19.849400
